<svg width="180" height="180" viewBox="0 0 180 180" fill="none" xmlns="http://www.w3.org/2000/svg">
<rect width="180" height="180" fill="#F9F7F2"/>
<g clip-path="url(#clip0_518_19)">
<path d="M0 0V180H180V0H0ZM97.623 170.532C97.056 169.605 96.588 168.624 96.237 167.598C95.67 165.933 95.265 164.007 95.004 161.847C94.743 159.687 94.608 156.969 94.608 153.702V130.806H104.121V153.585C104.121 156.771 103.986 159.435 103.725 161.595C103.464 163.755 103.059 165.681 102.492 167.346C102.105 168.471 101.592 169.533 100.953 170.532H97.623ZM79.047 170.532C78.408 169.533 77.886 168.471 77.508 167.346C76.941 165.681 76.536 163.755 76.275 161.595C76.014 159.435 75.879 156.762 75.879 153.585V130.806H85.392V153.702C85.392 156.969 85.257 159.687 84.996 161.847C84.735 164.007 84.33 165.933 83.763 167.598C83.412 168.633 82.944 169.605 82.377 170.532H79.047ZM39.762 170.532L66.681 140.868V153.45C66.681 156.717 66.546 159.453 66.285 161.649C66.024 163.854 65.574 165.762 64.917 167.4C64.476 168.507 63.9 169.542 63.207 170.532H39.753H39.762ZM82.368 9.468C82.935 10.395 83.403 11.367 83.754 12.402C84.321 14.067 84.726 15.993 84.987 18.153C85.248 20.313 85.383 23.031 85.383 26.298V49.194H75.87V26.415C75.87 23.229 76.005 20.565 76.266 18.405C76.527 16.245 76.932 14.319 77.499 12.654C77.886 11.529 78.399 10.467 79.038 9.468H82.368ZM100.953 9.468C101.592 10.467 102.114 11.529 102.492 12.654C103.059 14.319 103.464 16.245 103.725 18.405C103.986 20.565 104.121 23.238 104.121 26.415V49.194H94.608V26.298C94.608 23.031 94.743 20.313 95.004 18.153C95.265 15.993 95.67 14.067 96.237 12.402C96.588 11.367 97.056 10.395 97.623 9.468H100.953ZM103.806 82.035L103.779 82.062C103.617 83.637 103.347 85.077 102.96 86.391H95.85C95.427 85.005 95.121 83.484 94.95 81.81H94.932C94.725 79.65 94.608 76.977 94.608 73.791V55.179H104.121V74.016C104.121 77.202 104.004 79.866 103.797 82.026L103.806 82.035ZM104.121 105.984V124.821H94.608V106.209C94.608 103.023 94.725 100.35 94.932 98.19H94.95C95.121 96.516 95.427 94.995 95.85 93.609H102.96C103.347 94.923 103.626 96.363 103.779 97.938L103.806 97.965C104.013 100.125 104.13 102.798 104.13 105.975L104.121 105.984ZM85.068 81.81H85.05C84.879 83.484 84.573 85.014 84.15 86.391H77.04C76.653 85.077 76.374 83.637 76.221 82.062L76.194 82.035C75.987 79.875 75.87 77.202 75.87 74.025V55.188H85.383V73.8C85.383 76.986 85.266 79.659 85.059 81.819L85.068 81.81ZM85.383 106.209V124.821H75.87V105.984C75.87 102.798 75.987 100.134 76.194 97.974L76.221 97.947C76.383 96.372 76.662 94.932 77.04 93.618H84.15C84.573 95.004 84.879 96.525 85.05 98.199H85.068C85.275 100.359 85.392 103.032 85.392 106.218L85.383 106.209ZM64.926 12.591C65.583 14.229 66.033 16.137 66.294 18.342C66.555 20.547 66.69 23.274 66.69 26.55V39.132L39.771 9.468H63.225C63.918 10.458 64.494 11.493 64.935 12.6L64.926 12.591ZM48.834 108.909C48.834 105.651 49.707 102.897 51.426 100.647C53.154 98.397 55.746 96.678 59.202 95.445C61.398 94.671 63.891 94.14 66.672 93.852V124.551C61.812 124.02 57.87 122.679 54.855 120.537L54.873 120.519C50.841 117.657 48.834 113.787 48.834 108.9V108.909ZM59.202 84.555C55.737 83.331 53.154 81.603 51.426 79.353C49.707 77.103 48.834 74.349 48.834 71.091C48.834 66.204 50.841 62.334 54.873 59.472L54.855 59.454C57.87 57.312 61.812 55.971 66.672 55.44V86.139C63.891 85.851 61.398 85.329 59.202 84.546V84.555ZM64.782 49.689C56.916 50.508 50.679 52.839 46.098 56.727C41.517 60.597 39.222 65.43 39.222 71.226C39.222 75.456 40.455 79.2 42.912 82.422C43.947 83.772 45.198 84.987 46.62 86.085C44.496 85.761 42.552 85.302 40.788 84.69C37.035 83.394 34.155 81.36 32.166 78.633C30.177 75.906 29.187 72.486 29.187 68.418C29.187 62.217 31.401 57.546 35.802 54.405C40.221 51.264 46.485 49.689 54.612 49.689H64.773H64.782ZM46.62 93.915C45.198 95.013 43.956 96.228 42.912 97.578C40.455 100.8 39.222 104.544 39.222 108.774C39.222 114.57 41.517 119.403 46.098 123.273C50.679 127.152 56.916 129.492 64.782 130.311H54.621C46.494 130.311 40.23 128.736 35.811 125.595C31.401 122.454 29.196 117.783 29.196 111.582C29.196 107.514 30.186 104.094 32.175 101.367C34.164 98.64 37.044 96.606 40.797 95.31C42.552 94.707 44.505 94.239 46.629 93.915H46.62ZM115.074 167.409C114.417 165.771 113.967 163.863 113.706 161.658C113.445 159.453 113.31 156.726 113.31 153.459V140.886L140.229 170.541H116.775C116.082 169.551 115.506 168.516 115.065 167.409H115.074ZM131.166 71.091C131.166 74.349 130.293 77.103 128.574 79.353C126.846 81.603 124.254 83.322 120.798 84.555C118.602 85.329 116.109 85.86 113.328 86.148V55.449C118.188 55.98 122.13 57.321 125.145 59.463L125.127 59.481C129.159 62.343 131.166 66.213 131.166 71.1V71.091ZM120.798 95.445C124.263 96.669 126.846 98.397 128.574 100.647C130.293 102.897 131.166 105.651 131.166 108.909C131.166 113.796 129.159 117.666 125.127 120.528L125.145 120.546C122.13 122.688 118.188 124.029 113.328 124.56V93.861C116.109 94.149 118.602 94.671 120.798 95.454V95.445ZM115.209 130.311C123.075 129.492 129.312 127.161 133.893 123.273C138.474 119.403 140.769 114.57 140.769 108.774C140.769 104.544 139.536 100.8 137.079 97.578C136.044 96.228 134.793 95.013 133.371 93.915C135.495 94.239 137.448 94.698 139.203 95.31C142.956 96.606 145.836 98.64 147.825 101.367C149.814 104.094 150.804 107.514 150.804 111.582C150.804 117.783 148.599 122.454 144.189 125.595C139.77 128.736 133.506 130.311 125.379 130.311H115.209ZM133.371 86.085C134.793 84.987 136.044 83.772 137.079 82.422C139.536 79.191 140.769 75.456 140.769 71.226C140.769 65.43 138.474 60.597 133.893 56.727C129.312 52.839 123.075 50.508 115.209 49.689H125.379C133.506 49.689 139.77 51.264 144.189 54.405C148.599 57.546 150.804 62.217 150.804 68.418C150.804 72.495 149.814 75.906 147.825 78.633C145.836 81.36 142.956 83.394 139.203 84.69C137.439 85.293 135.495 85.761 133.371 86.085ZM113.31 39.123V26.55C113.31 23.283 113.445 20.547 113.706 18.342C113.967 16.137 114.417 14.229 115.074 12.591C115.515 11.484 116.091 10.449 116.784 9.459H140.238L113.319 39.114L113.31 39.123ZM9.423 9.468H27.504L59.094 43.56H53.19C46.44 43.56 40.527 44.523 35.424 46.44C30.321 48.366 26.379 51.201 23.616 54.954C20.853 58.707 19.476 63.189 19.476 68.409C19.476 73.629 20.853 78.057 23.616 81.693C26.397 85.329 30.321 88.074 35.424 89.955C35.478 89.973 35.532 89.991 35.586 90.009C35.532 90.027 35.478 90.045 35.424 90.063C30.321 91.944 26.397 94.689 23.616 98.325C20.853 101.961 19.476 106.38 19.476 111.609C19.476 116.838 20.853 121.32 23.616 125.064C26.379 128.817 30.321 131.643 35.424 133.578C40.527 135.495 46.449 136.458 53.19 136.458H59.094L27.504 170.55H9.423V9.468ZM170.577 170.532H152.496L120.897 136.44H126.81C133.56 136.44 139.473 135.477 144.576 133.56C149.679 131.634 153.621 128.799 156.384 125.046C159.147 121.293 160.524 116.811 160.524 111.591C160.524 106.371 159.147 101.943 156.384 98.307C153.603 94.671 149.679 91.926 144.576 90.045C144.522 90.027 144.468 90.009 144.414 89.991C144.468 89.973 144.522 89.955 144.576 89.937C149.679 88.056 153.603 85.311 156.384 81.675C159.147 78.039 160.524 73.62 160.524 68.391C160.524 63.162 159.147 58.68 156.384 54.936C153.621 51.183 149.679 48.357 144.576 46.422C139.473 44.514 133.551 43.542 126.81 43.542H120.897L152.487 9.45H170.568V170.523L170.577 170.532Z" fill="#1A1A18"/>
</g>
<defs>
<clipPath id="clip0_518_19">
<rect width="180" height="180" fill="white"/>
</clipPath>
</defs>
</svg>
