<?xml version="1.0" encoding="UTF-8"?>
<svg id="Layer_1" data-name="Layer 1" xmlns="http://www.w3.org/2000/svg" viewBox="0 0 600 277.32">
  <path d="M80.99,118.62c13.74-3.84,27.44-8.19,40.2-14.64,9.38-5.09,17.62-10.34,23.14-19.75,4.53-7.72,1.8-17.87-2.99-22.28-5.2-4.79-12.39-8.08-21.5-9.6-10.07-1.83-34.37-2.05-37.3.28-5.51,4.58,2.24,4.25,5.38,4.22,6.69,0,13.42.03,20.07.92,51.8,7.47,19.97,36.52-12.39,47.8-4.08,1.35-8.15,2.74-12.23,4.07,5.3-12.08,11.16-25.19,18.2-40.24,1.26-2.7,1.01-4.05.45-4.83-.45-.63-1.09-1.04-1.87-1.07-.87-.04-1.97,1.84-2.82,3.26-6.46,10.84-14.28,26.9-22.73,45.29-12.27,2.6-26.58,10.83-20.5,24.36,1.57,2.48,4.01,4.32,6.96,5.64-.89,2-1.78,4-2.68,6.01-2.55,6.38-6.36,12.71-7.22,19.64-.02.31-.05.61-.07.92-.02.76.04,1.58.35,2.3.26.62.6.94,1.16,1.27h0c.27.07.51.1.74.1.32,0,.62-.07.98-.22.71-.31,1.32-.86,1.83-1.43.7-.78,1.28-1.69,1.71-2.64,3.68-8.12,7.12-15.94,10.53-23.82,11.46,1.97,26-.47,33.34-3.4-.22,6.02,5.62,8.43,10.85,8.06h0c9.7-.33,20.26-4.15,26.03-12.28,7.36-14.67-7.35-20.48-19.42-15.29-1.99.92-3.84,2.31-5.56,3.65-1.4,1.89-1.82,4.94-.39,6.92,1.06,1.39,2.37.54,4.01.23,1.76-.6,2.99-1.01,4.25-1.46,4.23-1.23,8.44-1.34,12.18.86-5.23,5.05-18.95,11.39-25.71,7.06-.1-.1-.15-.13-.11-.27.03-.06.06-.12.08-.17.88-1,1.17-3.25.9-4.95-.14-1.12-.52-1.89-1.07-2.35-.91-.76-2.29-.64-3.77.25-7.1,2.96-20.43,4.43-31.09,2.7,2.06-4.77,4.14-9.61,6.3-14.59.59-.19,1.18-.37,1.76-.57ZM65.62,131.88c-2.03-.79-3.8-1.77-5.19-2.97,2.74-2.63,6.01-4.64,9.4-6.38-1.39,3.07-2.8,6.19-4.21,9.35Z"/>
  <path d="M182.26,68.24c1.79-4.84,6.82-13.33,2.52-17.79-1.14-.73-2.09.35-2.64,1.25-7.89,13.9-13.74,28.91-20.37,43.43-3.86,9.76-7.06,13.42-12.41,24.99h0c-.85,1.63-1.4,3.43-1.51,5.38-.08,2.02.2,5.41,2.77,5.62,1.58-.18,2.87-1.3,4.15-2.16,4.44-3.26,9.42-6.66,15.17-6.39-2.81,4.43-7.96,7.6-12.56,10.32-3.13,1.74-6.08,3.76-9.09,5.69-5.79,3.86-4.33,8.56-2.61,10.36,1.3,1.76,4.59,1.88,6.55.73,1.77-.84,3.47-1.75,5.16-2.76,6.53-3.84,12.28-8.16,16.47-14.6,4.16-6.2,5.23-19.52-3.79-21.85-2.07-.42-4.12-.11-6.17.28,4.91-10.6,9.54-22.33,10.36-23.57,2.79-6.27,5.3-12.64,8.02-18.93Z"/>
  <path d="M204.63,139.89c-2.91,0-5.86-.21-8.65-1.07,0,0,0,0,0,0,.51-.34,1.15-.81,2.05-1.53,1.77-1.43,4.26-3.29,6.52-7.07,6.74-11.3-3.49-23.49-14.96-15.14-7.17,5.46-8.83,16.04-5.98,24.27,2.02,6.68,8.97,10.59,15.69,10.42,4.46-.07,11.77-1.66,11.44-7.37-.3-3.07-3.89-2.46-6.1-2.5ZM195.43,122.38c1.63-.32,3.45-.13,4.47.65.4.31-.12.91-.51,1.41-3.33,4.28-4.98,5.92-7.96,8.47-.66.57-1.36,1.1-1.84,1.56,0,0,0,0,0,0-3.61-5.18,1.5-11.23,5.85-12.09Z"/>
  <path d="M238.09,114.37c-3.86,2.27-6.85,5.78-9.71,9.16-.86,1.05-1.69,2.14-2.5,3.24-.05.07-.09.13-.14.2,0-.09.02-.14.02-.14.3-2.28.64-4.56.94-6.84.23-2.75,1.8-10.42-.04-12.35-1.15-1.02-2.68.72-3.26,1.56-1.09,1.57-1.77,3.41-2.31,5.23-1.68,5.89-2.57,11.98-3.44,18.03-.52,3.94-1.04,7.91-1.08,11.89h0c-.01,4.3,3.16,4.09,5.45,1.36.08-.06.15-.16.23-.28,1.58-1.86,2.82-4.96,4.35-7.34,1.5-2.37,3.34-4.55,5.2-6.64,3.28-3.92,8.12-6.87,9.66-11.98.97-2.7.48-7.19-3.39-5.1Z"/>
  <path d="M340.04,67.81c-8.8-.31-17.59.49-26.39.45-13.4,0-26.81.15-40.21.51.65-2.35,1.3-4.69,1.93-7.04.64-2.99,1.35-6.15.64-9.19-1.32-4.79-4.29-1.85-5.46,1.05-2.24,5.02-3.97,10.23-5.57,15.5-6.99.2-27.92-.84-23.79,5.04,5,2.28,11.24.91,16.67,1.53,1.71.06,3.41.1,5.12.15-1.01,3.45-2.02,6.9-3.14,10.3-4.38,13.98-9,27.88-14.32,41.53-2.08,6.59-8.47,16.39-1.81,22.06h0c4,1.25,7.34-13.9,9.17-17.1,6.94-18.59,13.06-37.49,18.52-56.57,10.92.21,21.84.22,32.77.26h0c12.39-.3,24.11.65,36.84-1.86,2.87-.57,3.18-6.48-.96-6.62Z"/>
  <path d="M441.62,62.59c-12.07-10.95-38.35-14.85-57.03-10.28-3.68.9-.55,4.54,2.59,4.51,6.7,0,13.43.03,20.07.92,8.26,1.19,26.37,7.24,30.34,14.77,8.81,15.93-33.28,29.73-42.73,33.03-3.32,1.1-6.64,2.24-9.96,3.34,6.08-13.28,12.05-26.64,17.57-40.57.47-1.19.86-3.02.3-3.8-.45-.63-1.09-1.04-1.87-1.07-.87-.04-1.72.4-2.4.9-2.13,1.56-3.96,4.42-5.02,6.79-6.12,13.68-12.53,27.29-18.78,40.97-2.19.64-4.39,1.25-6.61,1.79-4.58,1.17-9.12,2.48-13.63,3.91-4.54,1.55-9.53,2.67-13.18,5.96-1.49,1.38-4.01,4.93-1.22,6.19h0c1.61.36,3.11-.43,4.59-.98,2.33-.81,4.68-1.61,7.05-2.32,6.22-1.74,12.48-3.31,18.7-5.07-3.91,8.75-7.72,17.53-11.28,26.4-.96,2.41-1.92,4.82-2.88,7.24-1.21,3.07-2.64,6.06-3.63,9.2-.29.94-.23.85-.36,1.5-.17.56-.29,1.12-.36,1.7-.02.31-.05.61-.07.92-.02.77.04,1.58.35,2.3.26.62.6.94,1.16,1.27h0c.27.07.51.1.74.1.32,0,.62-.07.98-.22.71-.31,1.32-.86,1.83-1.43.7-.78,1.28-1.69,1.71-2.64,1.51-3.32,2.8-6.73,4.22-10.09,5.68-13.43,11.67-26.4,17.64-39.35,13.66-3.82,27.28-8.16,39.97-14.57,9.38-5.09,19.1-11.09,24.62-20.5,4.21-6.7,2.77-15.11-3.45-20.85Z"/>
  <path d="M391.71,146.27c-5.11-4.22-4.68-9.71-1.63-15.38,1.8-3.36,7.61-11.85,12.02-12.44,1.2-.21,2.82.14,3.07,1.32.47,5.26-14.62,21.76-4.17,23.11,6.51.84-2.82,7.84-9.28,3.4Z"/>
  <path d="M442.69,125.37c-2.99-5.28-7.59-10.15-13.74-11.36-3.47-.61-8.22.02-10.39,3.08-1.27,1.61-1.8,4.05,0,5.63.51.41,1.2.5,1.85.23,1.56-.65,3.21-1.29,4.94-1.13,2.77.1,4.65,1.13,7.58,2.99.01.01.03.03.04.04-.01,0-.03,0-.04,0-.36-.02-.99-.04-1.56,0-7.4.5-15.4,3.64-19.99,9.74-2.81,4.82-.58,12.1,5.29,13.1h0c4.06.98,12.29,1.19,19.48-.94,3.43-.32,3.64-6.07.82-7.33-11.39,1.1-13.69,1.67-19.56,0-.21-.06-.32-.03-.12-.16,2.56-1.62,5.4-2.88,8.3-3.75,4.6-1.4,11.5-3.2,15.5,0,.16.13.31.21.45.28,2.14,1.43,4.25.78,4.87-.52,1.45-3.04-1.62-6.71-3.71-9.87Z"/>
  <path d="M480.97,123.32c-1.66-3.32-5.15-2.97-7.82-2.21-6.21,1.94-8.97,4.26-13.72,9.3,0,0-.03.02-.07.06.04-.14.07-.23.07-.23.45-1.23,3.81-7.92,4.9-11.42,1.42-4.52-2.03-4.22-4.17-.92-7.43,9.49-11.94,22.96-12.63,27.01-.24,1.38.28,2.25,1.19,2.71.54.29,1.21.42,1.93.42,1.75,0,3.27-1.94,4.53-3.14,2.84-3.14,4.88-5.15,7.52-7.76,2.72-2.53,5.94-6.3,8.65-6.75,4.35-.72,4.75,3.26,4.58,7.88-.28,2.8-1.99,10.46.87,10.82h0c6.53.2,7.26-20.55,4.19-25.8Z"/>
  <path d="M545.13,139.01c-8.47.73-16.93.99-25.4,1.82-8.66.31-22.16,2.1-25.71-1.55-.25-.8,1.73-2.35,2.27-2.69,7.03-3.92,17.31-3.17,23.44.98.18.12.36.23.55.31,2.73,1.29,5.3-1.55,3.14-4.86-.65-.99-2.27-3.99-4.13-6.21-6.03-7.22-14.4-14.02-24.71-10.16-3.97,1.49-4.81,3.86-4.81,5.08,0,4.37,3.6,2.41,5.31,2.12,5.11-.87,7.58-.71,12.26,2.25-6.63-.08-15.66,2.39-19.38,8.19-4.54,9.03,2.53,14.38,11.82,14.59h0c19.35.27,27.49-1.69,46.66-3.6,3.8-.38,4.1-6.89-1.31-6.27Z"/>
  <path d="M293.16,120.11c-2-8.53-13.98-11.32-18.46-7.87-3.45,2.66-5.38,6.39-1.85,9.28.22.18.4.19.4.19,2.81.42,13.81,3.14,13.97,7.56-3.55,5.15-12.22,9.69-17.74,5.17,1.79-3.78,7.89-8.62,3.75-12.74,0,0-.17-.2-.37-.18-11.48.25-14.78,21.65-4.81,26.6,15.09,4.82,30.78-13.61,25.12-28.01Z"/>
</svg>