<?xml version="1.0" encoding="UTF-8"?>
<svg id="Layer_1" data-name="Layer 1" xmlns="http://www.w3.org/2000/svg" viewBox="0 0 200 200">
  <path d="M0,0v200h200V0H0ZM108.47,189.48c-.63-1.03-1.15-2.12-1.54-3.26-.63-1.85-1.08-3.99-1.37-6.39-.29-2.4-.44-5.42-.44-9.05v-25.44h10.57v25.31c0,3.54-.15,6.5-.44,8.9-.29,2.4-.74,4.54-1.37,6.39-.43,1.25-1,2.43-1.71,3.54h-3.7ZM87.83,189.48c-.71-1.11-1.29-2.29-1.71-3.54-.63-1.85-1.08-3.99-1.37-6.39-.29-2.4-.44-5.37-.44-8.9v-25.31h10.57v25.44c0,3.63-.15,6.65-.44,9.05s-.74,4.54-1.37,6.39c-.39,1.15-.91,2.23-1.54,3.26h-3.7ZM44.18,189.48l29.91-32.96v13.98c0,3.63-.15,6.67-.44,9.11-.29,2.45-.79,4.57-1.52,6.39-.49,1.23-1.13,2.38-1.9,3.48h-26.06ZM91.52,10.52c.63,1.03,1.15,2.11,1.54,3.26.63,1.85,1.08,3.99,1.37,6.39s.44,5.42.44,9.05v25.44h-10.57v-25.31c0-3.54.15-6.5.44-8.9.29-2.4.74-4.54,1.37-6.39.43-1.25,1-2.43,1.71-3.54h3.7ZM112.17,10.52c.71,1.11,1.29,2.29,1.71,3.54.63,1.85,1.08,3.99,1.37,6.39.29,2.4.44,5.37.44,8.9v25.31h-10.57v-25.44c0-3.63.15-6.65.44-9.05.29-2.4.74-4.54,1.37-6.39.39-1.15.91-2.23,1.54-3.26h3.7ZM115.34,91.15l-.03.03c-.18,1.75-.48,3.35-.91,4.81h-7.9c-.47-1.54-.81-3.23-1-5.09h-.02c-.23-2.4-.36-5.37-.36-8.91v-20.68h10.57v20.93c0,3.54-.13,6.5-.36,8.9ZM115.69,117.76v20.93h-10.57v-20.68c0-3.54.13-6.51.36-8.91h.02c.19-1.86.53-3.55,1-5.09h7.9c.43,1.46.74,3.06.91,4.81l.03.03c.23,2.4.36,5.37.36,8.9ZM94.52,90.9h-.02c-.19,1.86-.53,3.56-1,5.09h-7.9c-.43-1.46-.74-3.06-.91-4.81l-.03-.03c-.23-2.4-.36-5.37-.36-8.9v-20.93h10.57v20.68c0,3.54-.13,6.51-.36,8.91ZM94.87,118.01v20.68h-10.57v-20.93c0-3.54.13-6.5.36-8.9l.03-.03c.18-1.75.49-3.35.91-4.81h7.9c.47,1.54.81,3.23,1,5.09h.02c.23,2.4.36,5.37.36,8.91ZM72.14,13.99c.73,1.82,1.23,3.94,1.52,6.39.29,2.45.44,5.48.44,9.12v13.98L44.19,10.52h26.06c.77,1.1,1.41,2.25,1.9,3.48ZM54.26,121.01c0-3.62.97-6.68,2.88-9.18,1.92-2.5,4.8-4.41,8.64-5.78,2.44-.86,5.21-1.45,8.3-1.77v34.11c-5.4-.59-9.78-2.08-13.13-4.46l.02-.02c-4.48-3.18-6.71-7.48-6.71-12.91ZM65.78,93.95c-3.85-1.36-6.72-3.28-8.64-5.78-1.91-2.5-2.88-5.56-2.88-9.18,0-5.43,2.23-9.73,6.71-12.91l-.02-.02c3.35-2.38,7.73-3.87,13.13-4.46v34.11c-3.09-.32-5.86-.9-8.3-1.77ZM71.98,55.21c-8.74.91-15.67,3.5-20.76,7.82-5.09,4.3-7.64,9.67-7.64,16.11,0,4.7,1.37,8.86,4.1,12.44,1.15,1.5,2.54,2.85,4.12,4.07-2.36-.36-4.52-.87-6.48-1.55-4.17-1.44-7.37-3.7-9.58-6.73-2.21-3.03-3.31-6.83-3.31-11.35,0-6.89,2.46-12.08,7.35-15.57,4.91-3.49,11.87-5.24,20.9-5.24h11.29ZM51.8,104.35c-1.58,1.22-2.96,2.57-4.12,4.07-2.73,3.58-4.1,7.74-4.1,12.44,0,6.44,2.55,11.81,7.64,16.11,5.09,4.31,12.02,6.91,20.76,7.82h0s-11.29,0-11.29,0c-9.03,0-15.99-1.75-20.9-5.24-4.9-3.49-7.35-8.68-7.35-15.57,0-4.52,1.1-8.32,3.31-11.35,2.21-3.03,5.41-5.29,9.58-6.73,1.95-.67,4.12-1.19,6.48-1.55ZM127.86,186.01c-.73-1.82-1.23-3.94-1.52-6.39-.29-2.45-.44-5.48-.44-9.11v-13.97l29.91,32.95h-26.06c-.77-1.1-1.41-2.25-1.9-3.48ZM145.74,78.99c0,3.62-.97,6.68-2.88,9.18-1.92,2.5-4.8,4.41-8.64,5.78-2.44.86-5.21,1.45-8.3,1.77v-34.11c5.4.59,9.78,2.08,13.13,4.46l-.02.02c4.48,3.18,6.71,7.48,6.71,12.91ZM134.22,106.05c3.85,1.36,6.72,3.28,8.64,5.78,1.91,2.5,2.88,5.56,2.88,9.18,0,5.43-2.23,9.73-6.71,12.91l.02.02c-3.35,2.38-7.73,3.87-13.13,4.46v-34.11c3.09.32,5.86.9,8.3,1.77ZM128.01,144.79c8.74-.91,15.67-3.5,20.76-7.82,5.09-4.3,7.64-9.67,7.64-16.11,0-4.7-1.37-8.86-4.1-12.44-1.15-1.5-2.54-2.85-4.12-4.07,2.36.36,4.53.87,6.48,1.55,4.17,1.44,7.37,3.7,9.58,6.73,2.21,3.03,3.31,6.83,3.31,11.35,0,6.89-2.45,12.08-7.35,15.57-4.91,3.49-11.87,5.24-20.9,5.24h-11.3ZM148.19,95.65c1.58-1.22,2.97-2.57,4.12-4.07,2.73-3.59,4.1-7.74,4.1-12.44,0-6.44-2.55-11.81-7.64-16.11-5.09-4.32-12.02-6.91-20.76-7.82h0s11.3,0,11.3,0c9.03,0,15.99,1.75,20.9,5.24,4.9,3.49,7.35,8.68,7.35,15.57,0,4.53-1.1,8.32-3.31,11.35-2.21,3.03-5.41,5.29-9.58,6.73-1.96.67-4.12,1.19-6.48,1.55ZM125.9,43.47v-13.97c0-3.63.15-6.67.44-9.12.29-2.45.79-4.57,1.52-6.39.49-1.23,1.13-2.38,1.9-3.48h26.06l-29.91,32.95ZM10.47,10.52h20.09l35.1,37.88h-6.56c-7.5,0-14.07,1.07-19.74,3.2-5.67,2.14-10.05,5.29-13.12,9.46-3.07,4.17-4.6,9.15-4.6,14.95s1.53,10.72,4.6,14.76c3.09,4.04,7.45,7.09,13.12,9.18.06.02.12.04.18.06-.06.02-.12.04-.18.06-5.67,2.09-10.03,5.14-13.12,9.18-3.07,4.04-4.6,8.95-4.6,14.76s1.53,10.79,4.6,14.95c3.07,4.17,7.45,7.31,13.12,9.46,5.67,2.13,12.25,3.2,19.74,3.2h6.56l-35.1,37.88H10.47V10.52ZM189.53,189.48h-20.09l-35.11-37.88h6.57c7.5,0,14.07-1.07,19.74-3.2,5.67-2.14,10.05-5.29,13.12-9.46,3.07-4.17,4.6-9.15,4.6-14.95s-1.53-10.72-4.6-14.76c-3.09-4.04-7.45-7.09-13.12-9.18-.06-.02-.12-.04-.18-.06.06-.02.12-.04.18-.06,5.67-2.09,10.03-5.14,13.12-9.18,3.07-4.04,4.6-8.95,4.6-14.76s-1.53-10.79-4.6-14.95c-3.07-4.17-7.45-7.31-13.12-9.46-5.67-2.12-12.25-3.2-19.74-3.2h-6.57l35.1-37.88h20.09v178.97Z"/>
</svg>