{# static payoff subtext: present from the first frame, never animated #}
<svg class="intro__payoff" viewBox="0 0 600 277.32" xmlns="http://www.w3.org/2000/svg" role="img" aria-hidden="true" focusable="false">
  <g fill="#fff">
    <path d="M63.15,223.6l-4.96-12.26-.03-.08h-1.54l-4.85,12.41c-.62,1.56-1.06,2.57-1.77,3.38l-.03.04v.24h2.98v-.19l-.02-.06c-.43-.8-.18-1.85.37-3.28l.56-1.42h6.77l.56,1.38c.67,1.65.79,2.62.44,3.33v.25s3.35,0,3.35,0v-.24l-.03-.04c-.73-.85-1.16-1.86-1.8-3.45ZM60.08,220.93h-5.66l2.8-7.16,2.86,7.16Z"/>
    <path d="M74.07,216.06c-1.47,0-2.62.91-3.26,2.58v-2.42l-2.37.26v.25l.03.03c.47.57.54,1.19.54,2.45v5.37c0,1.25-.04,1.87-.46,2.48l-.02.03v.23h2.87v-.24l-.03-.04c-.51-.6-.56-1.18-.56-2.47v-2.39c0-3.03,1.62-4.38,3.22-4.38.29,0,.54.02.8.11l.16.06v-1.79l-.09-.03c-.22-.07-.47-.1-.83-.1Z"/>
    <path d="M87,225c-.98.68-1.92.98-3.02.98-2.38,0-4.04-1.77-4.04-4.31s1.6-4.24,3.9-4.24c1.04,0,2,.47,2.58,1.25l.04.05h.28v-1.93l-.06-.04c-.81-.45-1.85-.7-2.93-.7-3.28,0-5.65,2.43-5.65,5.77s2.34,5.72,5.56,5.72c1.37,0,2.61-.52,3.7-1.54l.05-.05-.27-1.07-.15.1Z"/>
    <path d="M100.84,224.58v-4.28c0-3.13-1.98-4.24-3.67-4.24-1.33,0-2.52.69-3.38,1.94v-7.15h-.12l-2.22.29v.24l.03.03c.46.57.54,1.24.54,2.45v10.72c0,1.25-.07,1.87-.48,2.48l-.02.03v.23h2.78v-.23l-.02-.03c-.41-.61-.48-1.23-.48-2.48v-3.73c0-1.98,1.56-3.31,3.01-3.31s2.26,1.02,2.26,2.79v4.25c0,1.26-.04,1.87-.46,2.48l-.02.03v.23h2.75v-.23l-.02-.03c-.44-.63-.48-1.21-.48-2.48Z"/>
    <path d="M108.49,224.58v-8.36l-2.37.26v.25l.03.03c.47.57.54,1.19.54,2.45v5.37c0,1.25-.04,1.87-.46,2.48l-.02.03v.23h2.75v-.23l-.02-.03c-.41-.61-.46-1.22-.46-2.48Z"/>
    <path d="M107.52,214.49c.76,0,1.35-.6,1.35-1.38s-.61-1.35-1.35-1.35-1.35.61-1.35,1.35.59,1.38,1.35,1.38Z"/>
    <path d="M119.69,225.79c-.49.23-.89.33-1.4.33-.97,0-1.44-.52-1.44-1.6v-6.84h3.05v-1.39h-3.05v-2.5h-1.47v.12c-.09,2.15-.4,2.48-2.39,2.52h-.12v1.25h2.21v6.88c0,1.87,1.05,2.99,2.81,2.99.76,0,1.47-.24,2.1-.71l.06-.05-.2-1.08-.15.07Z"/>
    <path d="M132.53,224.87c-1.04.76-2.06,1.11-3.23,1.11-2.5,0-4.06-1.74-4.06-4.54v-.06h7.58v-.78c0-2.76-1.68-4.54-4.29-4.54-2.89,0-5.06,2.45-5.06,5.7,0,3.41,2.26,5.79,5.49,5.79,1.51,0,2.84-.56,3.93-1.65l.05-.05-.27-1.09-.15.11ZM125.38,220.11c.37-1.71,1.49-2.73,3.03-2.73s2.49,1.02,2.62,2.73h-5.65Z"/>
    <path d="M143.22,225.79c-.49.23-.89.33-1.4.33-.97,0-1.44-.52-1.44-1.6v-6.84h3.05v-1.39h-3.05v-2.5h-1.47v.12c-.09,2.15-.4,2.48-2.39,2.52h-.12v1.25h2.21v6.88c0,1.87,1.05,2.99,2.81,2.99.76,0,1.47-.24,2.1-.71l.06-.05-.2-1.08-.15.07Z"/>
    <path d="M153.46,225.79c-.48.23-.9.33-1.4.33-.97,0-1.44-.52-1.44-1.6v-6.84h3.05v-1.39h-3.05v-2.5h-1.47v.12c-.09,2.15-.4,2.48-2.39,2.52h-.12v1.25h2.21v6.88c0,1.87,1.05,2.99,2.81,2.99.76,0,1.47-.24,2.1-.71l.06-.05-.2-1.08-.15.07Z"/>
    <path d="M166.79,224.33v-8.04h-2.32v.23l.02.03c.39.53.52,1.16.52,2.47v3.69c0,2.09-1.46,3.33-2.88,3.33-1.33,0-2.04-.89-2.04-2.58v-7.18h-2.32v.23l.02.03c.39.56.52,1.19.52,2.5v4.44c0,2.99,1.77,4.06,3.42,4.06,1.31,0,2.49-.7,3.27-1.92v1.74h.12l2.15-.29v-.24l-.03-.03c-.43-.56-.48-1.18-.48-2.47Z"/>
    <path d="M177.79,216.06c-1.47,0-2.62.91-3.26,2.58v-2.42l-2.37.26v.25l.03.03c.47.57.54,1.19.54,2.45v5.37c0,1.25-.04,1.87-.46,2.48l-.02.03v.23h2.87v-.24l-.03-.04c-.51-.6-.56-1.18-.56-2.47v-2.39c0-3.03,1.62-4.38,3.22-4.38.29,0,.54.02.8.11l.16.06v-1.79l-.09-.03c-.22-.07-.47-.1-.83-.1Z"/>
    <path d="M191.37,226.02c-.27.14-.48.19-.74.19-.43,0-.65-.27-.65-.81v-5.26c0-3.69-2.74-4.08-3.92-4.08-1.33,0-2.75.54-3.9,1.48l-.06.05.23,1.14.15-.1c1.13-.74,2.19-1.09,3.23-1.09,1.67,0,2.51.87,2.51,2.58v.72l-2.41.64c-2.38.63-3.96,1.43-3.96,3.31,0,1.58,1.29,2.76,2.99,2.76.99,0,2.35-.35,3.38-1.97v.14c.05,1.08.79,1.8,1.85,1.8.56,0,1.07-.16,1.55-.5l.06-.05-.18-1.04-.15.08ZM188.22,222.02v.83c0,2-1.51,3.24-2.9,3.24-.99,0-1.63-.58-1.63-1.47,0-1.12,1.11-1.55,2.55-2l1.98-.61Z"/>
    <path d="M216.49,218.73l.02-.03v-.21h-2.05l-1.71,3.68-3.29-3.61.54-.29c2.2-1.2,3.09-2.33,3.09-3.91,0-1.87-1.7-3.33-3.88-3.33-2.34,0-4.17,1.6-4.17,3.65,0,1.41.71,2.33,1.78,3.59l.19.22-.32.17c-2.36,1.22-3.46,2.68-3.46,4.59,0,2.44,1.97,4.29,4.58,4.29,1.97,0,3.51-.89,4.84-2.79l2.34,2.56h2.23v-.24l-3.54-3.88,2.79-4.47ZM208.15,226c-1.75,0-3.01-1.24-3.01-2.95,0-1.45.73-2.49,2.44-3.46l.3-.16,3.94,4.34c-1.07,1.56-2.17,2.23-3.66,2.23ZM209.17,212.38c1.27,0,2.13.84,2.13,2.08s-.63,2.03-2.26,2.96l-.41.23-.12-.13c-1.05-1.17-1.65-1.88-1.65-2.99,0-1.29.93-2.15,2.31-2.15Z"/>
    <path d="M229.53,211.5l.02.03c.57.78.68,1.77.68,3.34v8.83c0,1.82-.17,2.64-.68,3.36l-.02.03v.23h3.3v-.23l-.02-.03c-.52-.72-.68-1.54-.68-3.36v-8.83c0-1.56.11-2.56.68-3.34l.02-.03v-.23h-3.3v.23Z"/>
    <path d="M247.21,224.58v-4.28c0-3.13-1.98-4.24-3.67-4.24-1.35,0-2.52.67-3.38,1.94v-1.78l-2.37.26v.25l.03.03c.47.57.54,1.19.54,2.45v5.37c0,1.25-.04,1.87-.46,2.48l-.02.03v.23h2.75v-.23l-.02-.03c-.41-.61-.46-1.22-.46-2.48v-3.73c0-1.98,1.55-3.31,2.99-3.31s2.29,1.02,2.29,2.79v4.25c0,1.25-.07,1.87-.48,2.48l-.02.03v.23h2.78v-.23l-.02-.03c-.43-.6-.48-1.22-.48-2.48Z"/>
    <path d="M258.13,225.79c-.48.23-.9.33-1.4.33-.97,0-1.44-.52-1.44-1.6v-6.84h3.05v-1.39h-3.05v-2.5h-1.47v.12c-.09,2.15-.4,2.48-2.39,2.52h-.12v1.25h2.21v6.88c0,1.87,1.05,2.99,2.81,2.99.76,0,1.47-.24,2.1-.71l.06-.05-.2-1.08-.15.07Z"/>
    <path d="M270.97,224.87c-1.04.76-2.06,1.11-3.23,1.11-2.5,0-4.06-1.74-4.06-4.54v-.06h7.58v-.78c0-2.76-1.68-4.54-4.29-4.54-2.89,0-5.06,2.45-5.06,5.7,0,3.41,2.26,5.79,5.49,5.79,1.51,0,2.84-.56,3.93-1.65l.05-.05-.27-1.09-.15.11ZM263.82,220.11c.37-1.71,1.49-2.73,3.03-2.73s2.49,1.02,2.62,2.73h-5.65Z"/>
    <path d="M281.49,216.06c-1.47,0-2.62.91-3.26,2.58v-2.42l-2.37.26v.25l.03.03c.47.57.54,1.19.54,2.45v5.37c0,1.25-.04,1.87-.46,2.48l-.02.03v.23h2.87v-.24l-.03-.04c-.51-.6-.56-1.18-.56-2.47v-2.39c0-3.03,1.62-4.38,3.22-4.38.29,0,.54.02.8.11l.16.06v-1.79l-.09-.03c-.22-.07-.47-.1-.83-.1Z"/>
    <path d="M295.77,224.58v-4.28c0-3.13-1.98-4.24-3.67-4.24-1.35,0-2.52.67-3.38,1.94v-1.78l-2.37.26v.25l.03.03c.47.57.54,1.19.54,2.45v5.37c0,1.25-.04,1.87-.46,2.48l-.02.03v.23h2.75v-.23l-.02-.03c-.41-.61-.46-1.22-.46-2.48v-3.73c0-1.98,1.55-3.31,2.99-3.31s2.29,1.02,2.29,2.79v4.25c0,1.25-.07,1.87-.48,2.48l-.02.03v.23h2.78v-.23l-.02-.03c-.43-.6-.48-1.22-.48-2.48Z"/>
    <path d="M302.42,214.49c.76,0,1.35-.6,1.35-1.38s-.61-1.35-1.35-1.35-1.35.61-1.35,1.35.59,1.38,1.35,1.38Z"/>
    <path d="M303.39,224.58v-8.36l-2.37.26v.25l.03.03c.47.57.54,1.19.54,2.45v5.37c0,1.25-.04,1.87-.46,2.48l-.02.03v.23h2.75v-.23l-.02-.03c-.41-.61-.46-1.22-.46-2.48Z"/>
    <path d="M323.48,218.94l-2.25-1.02c-1.6-.71-2.25-1.48-2.25-2.68,0-1.64,1.34-2.74,3.33-2.74,1.56,0,2.89.72,3.74,2.01l.04.06h.28v-2.38l-.06-.04c-1.03-.7-2.53-1.11-4.01-1.11-2.96,0-5.2,1.92-5.2,4.47,0,1.84,1.05,3.2,3.21,4.16l2.25,1c1.69.78,2.29,1.46,2.29,2.62,0,1.92-1.76,2.79-3.4,2.79-1.26,0-3.05-.44-4.45-2.56l-.04-.06h-.28v2.46l.05.04c1.29,1.01,3.01,1.6,4.72,1.6,3.02,0,5.29-1.95,5.29-4.54,0-1.82-.98-3.04-3.28-4.07Z"/>
    <path d="M340.41,226.02c-.27.14-.48.19-.74.19-.43,0-.65-.27-.65-.81v-5.26c0-3.69-2.74-4.08-3.92-4.08-1.33,0-2.75.54-3.9,1.48l-.06.05.23,1.14.15-.1c1.13-.74,2.19-1.09,3.23-1.09,1.67,0,2.51.87,2.51,2.58v.72l-2.41.64c-2.38.63-3.96,1.43-3.96,3.31,0,1.58,1.29,2.76,2.99,2.76.99,0,2.35-.35,3.38-1.97v.14c.05,1.08.79,1.8,1.85,1.8.56,0,1.07-.16,1.55-.5l.06-.05-.18-1.04-.15.08ZM337.27,222.02v.83c0,2-1.51,3.24-2.9,3.24-.99,0-1.63-.58-1.63-1.47,0-1.12,1.11-1.55,2.55-2l1.98-.61Z"/>
    <path d="M350.21,216.06c-1.47,0-2.62.91-3.26,2.58v-2.42l-2.37.26v.25l.03.03c.47.57.54,1.19.54,2.45v5.37c0,1.25-.04,1.87-.46,2.48l-.02.03v.23h2.87v-.24l-.03-.04c-.51-.6-.56-1.18-.56-2.47v-2.39c0-3.03,1.62-4.38,3.22-4.38.29,0,.54.02.8.11l.16.06v-1.79l-.09-.03c-.22-.07-.47-.1-.83-.1Z"/>
    <path d="M360.87,225.79c-.49.23-.89.33-1.4.33-.97,0-1.44-.52-1.44-1.6v-6.84h3.05v-1.39h-3.05v-2.5h-1.47v.12c-.09,2.15-.4,2.48-2.39,2.52h-.12v1.25h2.21v6.88c0,1.87,1.05,2.99,2.81,2.99.76,0,1.47-.24,2.1-.71l.06-.05-.2-1.08-.15.07Z"/>
    <path d="M370.07,216.06c-3.16,0-5.45,2.41-5.45,5.72s2.29,5.77,5.45,5.77,5.4-2.43,5.4-5.77-2.27-5.72-5.4-5.72ZM370.07,226.14c-2.15,0-3.54-1.71-3.54-4.36s1.39-4.33,3.54-4.33,3.52,1.74,3.52,4.33-1.41,4.36-3.52,4.36Z"/>
    <path d="M385.59,216.06c-1.47,0-2.62.91-3.26,2.58v-2.42l-2.37.26v.25l.03.03c.47.57.54,1.19.54,2.45v5.37c0,1.25-.04,1.87-.46,2.48l-.02.03v.23h2.87v-.24l-.03-.04c-.51-.6-.56-1.18-.56-2.47v-2.39c0-3.03,1.62-4.38,3.22-4.38.29,0,.54.02.8.11l.16.06v-1.79l-.09-.03c-.22-.07-.47-.1-.83-.1Z"/>
    <path d="M391.85,214.49c.76,0,1.35-.6,1.35-1.38s-.61-1.35-1.35-1.35-1.35.61-1.35,1.35.59,1.38,1.35,1.38Z"/>
    <path d="M392.82,224.58v-8.36l-2.37.26v.25l.03.03c.47.57.54,1.19.54,2.45v5.37c0,1.25-.04,1.87-.46,2.48l-.02.03v.23h2.75v-.23l-.02-.03c-.41-.61-.46-1.22-.46-2.48Z"/>
    <path d="M407.29,226.02c-.27.14-.48.19-.74.19-.43,0-.65-.27-.65-.81v-5.26c0-3.69-2.74-4.08-3.92-4.08-1.33,0-2.75.54-3.9,1.48l-.06.05.23,1.14.15-.1c1.13-.74,2.19-1.09,3.23-1.09,1.67,0,2.51.87,2.51,2.58v.72l-2.41.64c-2.38.63-3.96,1.43-3.96,3.31,0,1.58,1.29,2.76,2.99,2.76.99,0,2.35-.35,3.38-1.97v.14c.05,1.08.79,1.8,1.85,1.8.56,0,1.07-.16,1.55-.5l.06-.05-.18-1.04-.15.08ZM404.15,222.02v.83c0,2-1.51,3.24-2.9,3.24-.99,0-1.63-.58-1.63-1.47,0-1.12,1.11-1.55,2.55-2l1.98-.61Z"/>
    <path d="M413.78,224.58v-13.73h-.12l-2.22.29v.24l.03.03c.46.57.54,1.24.54,2.45v10.72c0,1.25-.07,1.87-.48,2.48l-.02.03v.23h2.78v-.23l-.02-.03c-.41-.61-.48-1.23-.48-2.48Z"/>
    <path d="M420.57,214.49c.76,0,1.35-.6,1.35-1.38s-.61-1.35-1.35-1.35-1.35.61-1.35,1.35.59,1.38,1.35,1.38Z"/>
    <path d="M421.54,224.58v-8.36l-2.37.26v.25l.03.03c.47.57.54,1.19.54,2.45v5.37c0,1.25-.04,1.87-.46,2.48l-.02.03v.23h2.75v-.23l-.02-.03c-.41-.61-.46-1.22-.46-2.48Z"/>
    <path d="M436.59,217.86c-.8,0-1.42.61-1.42,1.4s.62,1.42,1.42,1.42,1.4-.62,1.4-1.42-.63-1.4-1.4-1.4Z"/>
    <path d="M462.26,224.61c-.6.96-1.41,1.28-3.24,1.28h-5.18v-5.98h3.81c1.69,0,2.41.18,2.96.76l.04.04h.27v-3.03h-.27l-.04.04c-.53.5-1.13.76-2.96.76h-3.81v-5.78h4.81c1.87,0,2.7.25,3.29.98l.04.05h.28v-2.46h-11.01v.23l.02.03c.57.78.68,1.77.68,3.34v8.83c0,1.82-.17,2.64-.68,3.36l-.02.03v.23h11.33v-2.78h-.29l-.04.06Z"/>
    <path d="M471.7,221.4l-1.52-.66c-1.23-.54-1.63-.96-1.63-1.73,0-1.11,1.15-1.6,2.29-1.6s2,.43,2.63,1.25l.04.05h.28v-1.91l-.07-.04c-.83-.45-1.85-.7-2.88-.7-2.24,0-3.92,1.38-3.92,3.22,0,1.32.77,2.3,2.35,2.98l1.46.64c1.25.55,1.63.94,1.63,1.66,0,1.13-1.2,1.65-2.31,1.65-1.23,0-2.29-.56-3.06-1.61l-.04-.05h-.28v1.92l.05.04c.89.66,2.14,1.05,3.35,1.05,2.29,0,3.95-1.37,3.95-3.26,0-1.3-.71-2.2-2.3-2.89Z"/>
    <path d="M484.32,225.79c-.49.23-.89.33-1.4.33-.97,0-1.44-.52-1.44-1.6v-6.84h3.05v-1.39h-3.05v-2.5h-1.47v.12c-.09,2.15-.4,2.48-2.39,2.52h-.12v1.25h2.21v6.88c0,1.87,1.05,2.99,2.81,2.99.76,0,1.47-.24,2.1-.71l.06-.05-.2-1.08-.15.07Z"/>
    <path d="M499.74,211.72c-.15,1.95-.97,2.57-3.52,2.66h-.12v1.23h3.28v11.72h1.82v-15.72h-1.45v.12Z"/>
    <path d="M512.07,211.38c-2.94,0-5.15,2.18-5.15,5.06,0,2.69,1.98,4.72,4.61,4.72,1.78,0,3.4-.95,4.2-2.46-.02,2.5-.69,4.48-1.94,5.75-.99,1-2.29,1.51-3.87,1.51-1.04,0-1.99-.22-2.83-.67l-.15-.08-.2,1.25.07.04c.97.62,2.09.93,3.32.93,2.52,0,4.6-1.14,6-3.31,1.7-2.6,2.03-6.83.76-9.61-.92-2.03-2.62-3.14-4.8-3.14ZM515.44,216.23v.09c0,1.84-1.53,3.33-3.4,3.33s-3.22-1.36-3.22-3.38,1.34-3.52,3.33-3.52c1.87,0,3.29,1.49,3.29,3.47Z"/>
    <path d="M527.49,211.38c-2.94,0-5.15,2.18-5.15,5.06,0,2.69,1.98,4.72,4.61,4.72,1.78,0,3.4-.95,4.2-2.46-.02,2.5-.69,4.48-1.94,5.75-.99,1-2.29,1.51-3.87,1.51-1.04,0-1.99-.22-2.83-.67l-.15-.08-.2,1.25.07.04c.97.62,2.09.93,3.32.93,2.52,0,4.6-1.14,6-3.31,1.7-2.6,2.03-6.83.76-9.61-.92-2.03-2.62-3.14-4.8-3.14ZM530.87,216.23v.09c0,1.84-1.53,3.33-3.4,3.33s-3.22-1.36-3.22-3.38,1.34-3.52,3.33-3.52c1.87,0,3.29,1.49,3.29,3.47Z"/>
    <path d="M545.39,219.04c1.79-.55,2.88-1.9,2.88-3.56,0-2.38-2.11-4.11-5.02-4.11s-5.04,1.73-5.04,4.11c0,1.66,1.08,2.97,2.9,3.56-2.16.54-3.49,2.04-3.49,3.97,0,2.71,2.26,4.54,5.63,4.54s5.63-1.87,5.63-4.54c0-1.95-1.33-3.44-3.5-3.97ZM543.26,219.77c2.21,0,3.7,1.29,3.7,3.22s-1.49,3.13-3.7,3.13-3.7-1.26-3.7-3.13,1.49-3.22,3.7-3.22ZM543.26,218.38c-1.89,0-3.11-1.1-3.11-2.81s1.25-2.79,3.11-2.79,3.11,1.12,3.11,2.79-1.22,2.81-3.11,2.81Z"/>
  </g>
</svg>
{# signature: hidden until intro.js reveals + "writes" it left->right (clip-rect) #}
<svg class="intro__logo" viewBox="0 0 600 277.32" xmlns="http://www.w3.org/2000/svg" role="img" aria-hidden="true" focusable="false">
  <defs>
    <clipPath id="introWipe"><rect data-wipe x="0" y="0" width="0" height="277.32"></rect></clipPath>
  </defs>
  <g clip-path="url(#introWipe)" fill="#fff">
    <path d="M80.99,118.62c13.74-3.84,27.44-8.19,40.2-14.64,9.38-5.09,17.62-10.34,23.14-19.75,4.53-7.72,1.8-17.87-2.99-22.28-5.2-4.79-12.39-8.08-21.5-9.6-10.07-1.83-34.37-2.05-37.3.28-5.51,4.58,2.24,4.25,5.38,4.22,6.69,0,13.42.03,20.07.92,51.8,7.47,19.97,36.52-12.39,47.8-4.08,1.35-8.15,2.74-12.23,4.07,5.3-12.08,11.16-25.19,18.2-40.24,1.26-2.7,1.01-4.05.45-4.83-.45-.63-1.09-1.04-1.87-1.07-.87-.04-1.97,1.84-2.82,3.26-6.46,10.84-14.28,26.9-22.73,45.29-12.27,2.6-26.58,10.83-20.5,24.36,1.57,2.48,4.01,4.32,6.96,5.64-.89,2-1.78,4-2.68,6.01-2.55,6.38-6.36,12.71-7.22,19.64-.02.31-.05.61-.07.92-.02.76.04,1.58.35,2.3.26.62.6.94,1.16,1.27h0c.27.07.51.1.74.1.32,0,.62-.07.98-.22.71-.31,1.32-.86,1.83-1.43.7-.78,1.28-1.69,1.71-2.64,3.68-8.12,7.12-15.94,10.53-23.82,11.46,1.97,26-.47,33.34-3.4-.22,6.02,5.62,8.43,10.85,8.06h0c9.7-.33,20.26-4.15,26.03-12.28,7.36-14.67-7.35-20.48-19.42-15.29-1.99.92-3.84,2.31-5.56,3.65-1.4,1.89-1.82,4.94-.39,6.92,1.06,1.39,2.37.54,4.01.23,1.76-.6,2.99-1.01,4.25-1.46,4.23-1.23,8.44-1.34,12.18.86-5.23,5.05-18.95,11.39-25.71,7.06-.1-.1-.15-.13-.11-.27.03-.06.06-.12.08-.17.88-1,1.17-3.25.9-4.95-.14-1.12-.52-1.89-1.07-2.35-.91-.76-2.29-.64-3.77.25-7.1,2.96-20.43,4.43-31.09,2.7,2.06-4.77,4.14-9.61,6.3-14.59.59-.19,1.18-.37,1.76-.57ZM65.62,131.88c-2.03-.79-3.8-1.77-5.19-2.97,2.74-2.63,6.01-4.64,9.4-6.38-1.39,3.07-2.8,6.19-4.21,9.35Z"/>
    <path d="M182.26,68.24c1.79-4.84,6.82-13.33,2.52-17.79-1.14-.73-2.09.35-2.64,1.25-7.89,13.9-13.74,28.91-20.37,43.43-3.86,9.76-7.06,13.42-12.41,24.99h0c-.85,1.63-1.4,3.43-1.51,5.38-.08,2.02.2,5.41,2.77,5.62,1.58-.18,2.87-1.3,4.15-2.16,4.44-3.26,9.42-6.66,15.17-6.39-2.81,4.43-7.96,7.6-12.56,10.32-3.13,1.74-6.08,3.76-9.09,5.69-5.79,3.86-4.33,8.56-2.61,10.36,1.3,1.76,4.59,1.88,6.55.73,1.77-.84,3.47-1.75,5.16-2.76,6.53-3.84,12.28-8.16,16.47-14.6,4.16-6.2,5.23-19.52-3.79-21.85-2.07-.42-4.12-.11-6.17.28,4.91-10.6,9.54-22.33,10.36-23.57,2.79-6.27,5.3-12.64,8.02-18.93Z"/>
    <path d="M204.63,139.89c-2.91,0-5.86-.21-8.65-1.07,0,0,0,0,0,0,.51-.34,1.15-.81,2.05-1.53,1.77-1.43,4.26-3.29,6.52-7.07,6.74-11.3-3.49-23.49-14.96-15.14-7.17,5.46-8.83,16.04-5.98,24.27,2.02,6.68,8.97,10.59,15.69,10.42,4.46-.07,11.77-1.66,11.44-7.37-.3-3.07-3.89-2.46-6.1-2.5ZM195.43,122.38c1.63-.32,3.45-.13,4.47.65.4.31-.12.91-.51,1.41-3.33,4.28-4.98,5.92-7.96,8.47-.66.57-1.36,1.1-1.84,1.56,0,0,0,0,0,0-3.61-5.18,1.5-11.23,5.85-12.09Z"/>
    <path d="M238.09,114.37c-3.86,2.27-6.85,5.78-9.71,9.16-.86,1.05-1.69,2.14-2.5,3.24-.05.07-.09.13-.14.2,0-.09.02-.14.02-.14.3-2.28.64-4.56.94-6.84.23-2.75,1.8-10.42-.04-12.35-1.15-1.02-2.68.72-3.26,1.56-1.09,1.57-1.77,3.41-2.31,5.23-1.68,5.89-2.57,11.98-3.44,18.03-.52,3.94-1.04,7.91-1.08,11.89h0c-.01,4.3,3.16,4.09,5.45,1.36.08-.06.15-.16.23-.28,1.58-1.86,2.82-4.96,4.35-7.34,1.5-2.37,3.34-4.55,5.2-6.64,3.28-3.92,8.12-6.87,9.66-11.98.97-2.7.48-7.19-3.39-5.1Z"/>
    <path d="M340.04,67.81c-8.8-.31-17.59.49-26.39.45-13.4,0-26.81.15-40.21.51.65-2.35,1.3-4.69,1.93-7.04.64-2.99,1.35-6.15.64-9.19-1.32-4.79-4.29-1.85-5.46,1.05-2.24,5.02-3.97,10.23-5.57,15.5-6.99.2-27.92-.84-23.79,5.04,5,2.28,11.24.91,16.67,1.53,1.71.06,3.41.1,5.12.15-1.01,3.45-2.02,6.9-3.14,10.3-4.38,13.98-9,27.88-14.32,41.53-2.08,6.59-8.47,16.39-1.81,22.06h0c4,1.25,7.34-13.9,9.17-17.1,6.94-18.59,13.06-37.49,18.52-56.57,10.92.21,21.84.22,32.77.26h0c12.39-.3,24.11.65,36.84-1.86,2.87-.57,3.18-6.48-.96-6.62Z"/>
    <path d="M441.62,62.59c-12.07-10.95-38.35-14.85-57.03-10.28-3.68.9-.55,4.54,2.59,4.51,6.7,0,13.43.03,20.07.92,8.26,1.19,26.37,7.24,30.34,14.77,8.81,15.93-33.28,29.73-42.73,33.03-3.32,1.1-6.64,2.24-9.96,3.34,6.08-13.28,12.05-26.64,17.57-40.57.47-1.19.86-3.02.3-3.8-.45-.63-1.09-1.04-1.87-1.07-.87-.04-1.72.4-2.4.9-2.13,1.56-3.96,4.42-5.02,6.79-6.12,13.68-12.53,27.29-18.78,40.97-2.19.64-4.39,1.25-6.61,1.79-4.58,1.17-9.12,2.48-13.63,3.91-4.54,1.55-9.53,2.67-13.18,5.96-1.49,1.38-4.01,4.93-1.22,6.19h0c1.61.36,3.11-.43,4.59-.98,2.33-.81,4.68-1.61,7.05-2.32,6.22-1.74,12.48-3.31,18.7-5.07-3.91,8.75-7.72,17.53-11.28,26.4-.96,2.41-1.92,4.82-2.88,7.24-1.21,3.07-2.64,6.06-3.63,9.2-.29.94-.23.85-.36,1.5-.17.56-.29,1.12-.36,1.7-.02.31-.05.61-.07.92-.02.77.04,1.58.35,2.3.26.62.6.94,1.16,1.27h0c.27.07.51.1.74.1.32,0,.62-.07.98-.22.71-.31,1.32-.86,1.83-1.43.7-.78,1.28-1.69,1.71-2.64,1.51-3.32,2.8-6.73,4.22-10.09,5.68-13.43,11.67-26.4,17.64-39.35,13.66-3.82,27.28-8.16,39.97-14.57,9.38-5.09,19.1-11.09,24.62-20.5,4.21-6.7,2.77-15.11-3.45-20.85Z"/>
    <path d="M391.71,146.27c-5.11-4.22-4.68-9.71-1.63-15.38,1.8-3.36,7.61-11.85,12.02-12.44,1.2-.21,2.82.14,3.07,1.32.47,5.26-14.62,21.76-4.17,23.11,6.51.84-2.82,7.84-9.28,3.4Z"/>
    <path d="M442.69,125.37c-2.99-5.28-7.59-10.15-13.74-11.36-3.47-.61-8.22.02-10.39,3.08-1.27,1.61-1.8,4.05,0,5.63.51.41,1.2.5,1.85.23,1.56-.65,3.21-1.29,4.94-1.13,2.77.1,4.65,1.13,7.58,2.99.01.01.03.03.04.04-.01,0-.03,0-.04,0-.36-.02-.99-.04-1.56,0-7.4.5-15.4,3.64-19.99,9.74-2.81,4.82-.58,12.1,5.29,13.1h0c4.06.98,12.29,1.19,19.48-.94,3.43-.32,3.64-6.07.82-7.33-11.39,1.1-13.69,1.67-19.56,0-.21-.06-.32-.03-.12-.16,2.56-1.62,5.4-2.88,8.3-3.75,4.6-1.4,11.5-3.2,15.5,0,.16.13.31.21.45.28,2.14,1.43,4.25.78,4.87-.52,1.45-3.04-1.62-6.71-3.71-9.87Z"/>
    <path d="M480.97,123.32c-1.66-3.32-5.15-2.97-7.82-2.21-6.21,1.94-8.97,4.26-13.72,9.3,0,0-.03.02-.07.06.04-.14.07-.23.07-.23.45-1.23,3.81-7.92,4.9-11.42,1.42-4.52-2.03-4.22-4.17-.92-7.43,9.49-11.94,22.96-12.63,27.01-.24,1.38.28,2.25,1.19,2.71.54.29,1.21.42,1.93.42,1.75,0,3.27-1.94,4.53-3.14,2.84-3.14,4.88-5.15,7.52-7.76,2.72-2.53,5.94-6.3,8.65-6.75,4.35-.72,4.75,3.26,4.58,7.88-.28,2.8-1.99,10.46.87,10.82h0c6.53.2,7.26-20.55,4.19-25.8Z"/>
    <path d="M545.13,139.01c-8.47.73-16.93.99-25.4,1.82-8.66.31-22.16,2.1-25.71-1.55-.25-.8,1.73-2.35,2.27-2.69,7.03-3.92,17.31-3.17,23.44.98.18.12.36.23.55.31,2.73,1.29,5.3-1.55,3.14-4.86-.65-.99-2.27-3.99-4.13-6.21-6.03-7.22-14.4-14.02-24.71-10.16-3.97,1.49-4.81,3.86-4.81,5.08,0,4.37,3.6,2.41,5.31,2.12,5.11-.87,7.58-.71,12.26,2.25-6.63-.08-15.66,2.39-19.38,8.19-4.54,9.03,2.53,14.38,11.82,14.59h0c19.35.27,27.49-1.69,46.66-3.6,3.8-.38,4.1-6.89-1.31-6.27Z"/>
    <path d="M293.16,120.11c-2-8.53-13.98-11.32-18.46-7.87-3.45,2.66-5.38,6.39-1.85,9.28.22.18.4.19.4.19,2.81.42,13.81,3.14,13.97,7.56-3.55,5.15-12.22,9.69-17.74,5.17,1.79-3.78,7.89-8.62,3.75-12.74,0,0-.17-.2-.37-.18-11.48.25-14.78,21.65-4.81,26.6,15.09,4.82,30.78-13.61,25.12-28.01Z"/>
  </g>
</svg>
